<svg width="100" height="50" viewBox="0 0 100 50" fill="none" xmlns="http://www.w3.org/2000/svg">
<path d="M0 23.3576V6.92236H2.15544V12.5182H10.114V14.4146H2.15544L2.10363 23.2436C2.10363 28.684 5.12954 31.7721 10.114 31.7721V33.7203C3.54405 33.7307 0 29.8343 0 23.3576Z" fill="#424928"/>
<path d="M35.9473 33.7825C31.7918 33.7825 29.3255 32.1867 28.4965 29.2644C27.6778 32.197 25.1079 33.7825 20.8902 33.7825C16.4757 33.7825 13.4395 31.3162 13.4395 25.4613V12.5701H15.5431V25.4095C15.5431 30.1867 17.7503 31.8343 21.1389 31.8343C24.9939 31.8343 27.4084 29.7825 27.4084 25.9276V12.5701H29.512V25.9794C29.512 29.7307 31.8747 31.8343 35.6778 31.8343C39.1182 31.8343 41.4809 30.1867 41.4809 25.4095V12.5701H43.5846V25.4613C43.6053 31.3266 40.4654 33.7825 35.9473 33.7825Z" fill="#424928"/>
<path d="M49.0978 8.82902C48.2273 8.82902 47.502 8.20726 47.502 7.3886C47.502 6.67358 48.217 6 49.0978 6C49.9683 6 50.6937 6.66321 50.6937 7.44042C50.6937 8.21762 49.9683 8.82902 49.0978 8.82902ZM48.0201 33.5337V12.57H50.1237V33.5234H48.0201V33.5337Z" fill="#424928"/>
<path d="M75.5436 47.0884C75.5436 43.7516 74.0514 40.6117 69.5333 40.6117H56.1343L56.1861 40.5081H56.1343C56.2897 36.9122 57.3156 34.1868 59.9892 32.8604C56.2379 31.2128 53.668 27.6169 53.668 23.3578C53.668 16.5288 59.212 12.6221 65.4815 12.6221H69.0773C71.9582 12.6221 72.8804 10.6739 72.8804 8.50806H73.9063C73.8545 10.4044 73.3882 11.793 72.2587 12.6221H75.6991V14.6221C75.6991 14.6221 70.7146 14.5702 70.1032 14.5702C73.4918 15.8034 75.9582 19.3993 75.9582 23.3578C75.9582 29.3164 71.0773 33.8863 64.8597 33.8863H63.6783C59.9789 33.8863 58.3415 36.0418 57.8752 38.6635H68.4037C71.326 38.6635 72.2587 36.7153 72.2587 34.5495H73.2846C73.1809 36.6532 72.6214 38.0936 71.2328 38.9122C75.44 39.7827 76.9322 42.7154 77.1395 47.0781H75.5436V47.0884ZM64.8079 14.5806C59.7716 14.5806 55.668 18.4873 55.668 23.2646C55.668 26.705 57.7716 29.6791 60.8079 31.0677C60.2897 30.249 60.041 29.1713 59.9892 27.7827H61.0151C61.0151 29.9381 61.9374 31.9381 64.7664 31.9381H64.8182C69.8545 31.9381 73.9582 28.0832 73.9582 23.2542C73.9582 18.477 69.8442 14.5806 64.8079 14.5806Z" fill="#424928"/>
<path d="M86.279 33.8341C84.4344 33.8341 81.2427 33.2227 78.7764 31.0051L79.9577 29.6165C82.1132 31.4093 84.6831 31.8756 86.1753 31.8756C88.7971 31.8238 91.2634 30.2797 91.2116 27.917C91.1598 21.5025 79.5018 26.0725 79.3981 17.9585C79.3463 14.8289 82.5277 12.4144 85.9163 12.3108C87.3567 12.3108 90.1754 12.6735 92.5381 14.4662L91.3049 15.803C89.5536 14.5699 87.2945 14.2072 86.1132 14.2072C83.8023 14.259 81.4396 15.7512 81.4396 17.9067C81.4396 24.0725 93.0976 19.8548 93.2531 27.8238C93.3152 31.2227 90.2375 33.7823 86.279 33.8341Z" fill="#424928"/>
<path d="M95.7617 13.6374C95.7617 12.4353 96.7047 11.4612 97.8757 11.4612C99.0571 11.4612 100 12.4353 100 13.6374C100 14.8083 99.0571 15.7928 97.8757 15.7928C96.7047 15.7928 95.7617 14.8187 95.7617 13.6374ZM99.5856 13.6374C99.5856 12.6425 98.8291 11.8239 97.8757 11.8239C96.9327 11.8239 96.1555 12.6425 96.1555 13.6374C96.1555 14.6218 96.9223 15.4301 97.8757 15.4301C98.8291 15.4301 99.5856 14.6114 99.5856 13.6374ZM97.1503 12.57C97.3265 12.5493 97.5441 12.5285 97.7721 12.5285C98.4042 12.5285 98.6944 12.8291 98.6944 13.2228C98.6944 13.4819 98.5597 13.7306 98.311 13.8446L98.8291 14.6736H98.2902L97.8757 13.9482C97.8239 13.9586 97.7928 13.9586 97.7617 13.9586C97.7203 13.9586 97.6788 13.9586 97.5959 13.9482V14.6736H97.14V12.57H97.1503ZM97.6166 13.5752C97.6892 13.5855 97.741 13.5855 97.7928 13.5855C98.0519 13.5855 98.2073 13.4612 98.2073 13.2332C98.2073 13.0467 98.0726 12.9327 97.8239 12.9327C97.7514 12.9327 97.6892 12.9327 97.627 12.943V13.5752H97.6166Z" fill="#424928"/>
</svg>
